<svg version="1.1" xmlns="http://www.w3.org/2000/svg" xmlns:xlink="http://www.w3.org/1999/xlink" viewBox="180 350 1920 1920" xml:space="preserve" width="1920px" height="1920px" id="fifa18-ronaldopage-accoladesvg">
<style type="text/css">
	#fifa18-ronaldopage-accoladesvg .st0{fill:url(#accoladesvg-SVGID_1_);}
	#fifa18-ronaldopage-accoladesvg .st1{}
	#fifa18-ronaldopage-accoladesvg .st2{display:inline;}
	#fifa18-ronaldopage-accoladesvg .st3{clip-path:url(#accoladesvg-SVGID_3_);fill:url(#accoladesvg-SVGID_4_);}
	#punchedcircle-rest { display: block; }
	#punchedcircle-mobile { display: none; }

	@media (max-width: 1024px){
		#punchedcircle-rest { 
			transform: scale(1.3) translate(-210px,-140px);
		}	
	}

	@media (max-width: 767px){
		#punchedcircle-rest { display: none; }
		#punchedcircle-mobile { display: block; }
	}
	
</style>
<g id="punchedcircle-rest" style="
    transform: scale(1.3) translate(-210px,-140px);
">
	<linearGradient id="accoladesvg-SVGID_1_" gradientUnits="userSpaceOnUse" x1="1384.2615" y1="454.2399" x2="564.1814" y2="1431.5731">
		<stop offset="0" style="stop-color:#CF226B"></stop>
		<stop offset="0.1305" style="stop-color:#D02A6A"></stop>
		<stop offset="0.2863" style="stop-color:#D43C68"></stop>
		<stop offset="0.4551" style="stop-color:#DA5263"></stop>
		<stop offset="0.6331" style="stop-color:#E36D5A"></stop>
		<stop offset="0.8165" style="stop-color:#F18A43"></stop>
		<stop offset="0.879" style="stop-color:#F79536"></stop>
		<stop offset="0.918" style="stop-color:#F89B35"></stop>
		<stop offset="0.9792" style="stop-color:#FBAB33"></stop>
		<stop offset="1" style="stop-color:#FCB132"></stop>
	</linearGradient>
	<path class="st0" d="M1147.1,1156.8l8.3-8.3C1152.6,1151.3,1149.9,1154.1,1147.1,1156.8z M639.8,720.6l74.3-75
		C686.1,667.2,661.1,692.4,639.8,720.6z M835.8,581.4l-61,61h-4.3L581.1,829.8c-2.6,7.5-5,15.1-7.2,22.7l271.5-274.1
		C842.2,579.4,839,580.4,835.8,581.4z M886.9,700l131.9-133.2c-2.9-0.4-5.8-0.8-8.7-1.2L868.5,705.7
		C874.5,703.6,880.7,701.7,886.9,700z M620.5,1175.3c2.9,4.6,5.9,9.1,9,13.6l92.6-93.5c-2.5-4.4-4.9-8.9-7.1-13.5L620.5,1175.3z
		 M920.8,1230.6l-105.6,104.4c6.3,2.4,12.6,4.7,19,6.7l108-109.1C935.1,1232.3,927.9,1231.6,920.8,1230.6z M1353,899.3l-131.9,130.5
		c-2.5,9.9-5.6,19.5-9.2,28.9l143.2-144.5C1354.5,909.1,1353.8,904.2,1353,899.3z M1356.5,927.9L1202.7,1080
		c-12.2,25.2-28.3,48.3-47.3,68.4l202.2-204.1C1357.3,938.8,1356.9,933.4,1356.5,927.9z M1099.3,1335.9l234.4-236.6
		c3.6-9.9,6.9-20,9.7-30.2l-282.1,279C1074.2,1344.6,1086.9,1340.5,1099.3,1335.9z M1160.9,1306.4l143.8-145.2
		c8-13.9,15.2-28.3,21.5-43.1l-215.8,213.5C1127.9,1324.3,1144.8,1315.9,1160.9,1306.4z M1287.7,1188.2L1181,1293.7
		C1222.9,1265.5,1259.1,1229.7,1287.7,1188.2z M601,1315.6l84.2-85l0,0l308.3-311.2h-5.1l-119.6,119.6h-3.4l-84.8,84.8h-6.1
		l-45.3,45.3h-5.4l-0.9,0.9l-60.8,60.1c2.3,2.6,4.7,5.1,7.1,7.6l-24.2,24.2h4.9l-53.7,53.7H601z M1069.8,871.2l-77.3,77.3h-3.1
		l-61.2,61.2h-2.5l-93.8,93.8h-3.2l-56.5,55.8c0,0-2-1.9-3-2.9l-91.2,90.2c1.3,1.2,3.8,3.7,3.8,3.7l-36.2,36.2h5.3l-46.8,46.8h4.6
		l-35.3,35.3h3.4l-40,40h4.4l532.5-537.4H1069.8z M1011.3,962.3l-93.5,93.5h-3.8l-66.9,66.9h-5.9l-51.6,51.6c0,0-2.3-1.8-3.4-2.7
		l-91.5,90.5c3.1,2.7,10.4,8.9,10.4,8.9l-26.1,26.1h5l331.9-334.8H1011.3z M846.8,1161l-31.5,31.5c0,0-7.6-4.9-10.7-7l-92.3,91.3
		c4.6,3.6,9.3,7.1,14.1,10.5L851.4,1161H846.8z M960.4,1078.7l-66.4,66.4h-4.9l-57,57c0,0-5.2-2.8-7.8-4.2l-93.5,92.5
		c4.9,3.4,9.9,6.7,15,9.9l219.5-221.6H960.4z M1057.9,1013.4l-87.5,87.5h-4.8l-57,57h-4.5l-53.2,53.2c0,0-3.5-1.5-5.2-2.3
		l-95.4,94.3c5.2,3.2,10.5,6.3,15.9,9.2l295.8-298.9H1057.9z M985.3,1119.2l-61,61h-4l-41.2,41.2c0,0-6.9-2.2-10.3-3.4l-97.8,96.8
		c5.5,3,11.2,5.8,16.9,8.5l201.7-203.9C987.4,1119.4,985.3,1119.2,985.3,1119.2z M938,1199.7l-29,29c0,0-10.2-2-15.3-3.3
		l-101.2,100.1c5.9,2.7,11.9,5.2,17.9,7.7l132.3-133.5H938z M1164.9,1102.6l-69.6,69.6h-6.2l-48.1,48.1c0,0-11.7,3.5-17.6,5
		l-131.9,130.5c7.6,1.3,15.2,2.3,23,3.2l255.1-256.4H1164.9z M821,1387.4l238.4-240.3h-4.6l-52,52h-5.5l-34,34c0,0-3.3,0-5,0
		c-2.5,0-5.1,0-7.6-0.1l-111.5,110.3c4.8,1.5,15.2,4.4,15.2,4.4l-39.6,39.6H821z M1169.9,1063.6c-0.3,0.3-63.7,63.7-63.7,63.7h-5.1
		l-56.3,56.3h-6.2l-47.7,47.6c0,0-4.4,0.5-6.6,0.7l-119.7,118.4c4.2,1,12.5,2.8,12.5,2.8l-25.6,25.7h4.8l-42.5,42.5h6.4l354.3-357.9
		C1171.7,1063.5,1170,1063.5,1169.9,1063.6z M1147.1,1156.8c-21.3,20.7-46.1,37.9-73.2,50.7L920,1359.6c6.2,0.6,12.5,1,18.8,1.3
		l-22.5,22.5h6.2l22.1-22.3c0,0,16.4-16.5,16.4-16.5L1147.1,1156.8z M882.7,998.6h-5.2l-71.6,71.6h-5.2l-57.3,57.2
		c0,0-2.8-3.6-4.1-5.5l-91.9,90.9c3.5,4.3,7,8.5,10.7,12.6L882.7,998.6z M767.7,1081.7h-5.1l-30.3,30.3c0,0-4.1-6.3-5.9-9.3
		l-92.9,91.9c3.2,4.4,6.5,8.8,9.8,13.1L767.7,1081.7z M724,1051h-4.1l-13.2,13.2c0,0-1.3-3.2-1.9-4.9l-96.6,95.5
		c2.6,4.7,5.3,9.4,8.1,14l217.3-219.4h-3.9l-57.4,57.4h-4.1L724,1051z M768.7,982.6h-3.9l-46.3,46.3h-4.1l-14.9,14.9
		c-0.9-2.8-1.7-5.5-2.5-8.4l-99.5,98.4c1.4,2.8,2.8,5.7,4.2,8.5l-23,23h4.9l-53.7,53.7h4.8l167.1-168.7L768.7,982.6z M594.1,1126.4
		l4.5-4.5l3.4-3.5h0l82.1-82.9h0l10.1-10.2l0.1-0.1l0,0l19.2-19.4h-3.9l-16,16c-0.9-4.1-1.8-8.3-2.5-12.5l-103.4,102.2
		c0.9,2.3,1.9,4.7,2.9,7l-57.9,57.9h4.6l-35.3,35.3h3.4l-40,40h4.4L594.1,1126.4L594.1,1126.4z M563.9,1026.1
		C563.9,1026.1,563.9,1026.1,563.9,1026.1L695.8,893c2.1-8.1,4.6-16,7.4-23.7l-141.7,140.1c0.5,4.3,1.1,8.7,1.8,13l-42,42h4.8
		L563.9,1026.1z M598.5,958.4L598.5,958.4l117.2-118.3c6.9-13.7,15-26.8,24-39.1L559.1,979.6c0.2,4.4,0.5,8.8,0.8,13.1l-17.8,17.8
		h4.8L598.5,958.4z M558.8,1129.3l25.7-26c0,0,0,0,0,0l100.8-101.7h0l78.3-79h-3.9L713.4,969h-4.1l-20.9,20.9
		c-0.3-3-0.6-6.1-0.8-9.1l-108.5,107.3c1.3,4,2.8,8,4.2,12l-29.3,29.3H558.8z M839.9,809.2l-57.4,57.4h-4.1l-44.1,44.1h-4.1
		l-43.1,43.1c0-1.6,0.1-3.2,0.2-4.8l-115.5,114.3c1.4,5.3,2.9,10.6,4.5,15.8l267.3-269.9H839.9z M565.8,1037.1
		c1,5.5,2.2,10.9,3.5,16.3l117.1-118.2h0l98.5-99.4h-3.7l-57.4,57.4h-4.1l-29.9,29.9c0.5-3.4,1-6.8,1.6-10.2L565.8,1037.1z
		 M787.5,600.5l-59.3,59.3h-3.6l-60,60h-4.7L606.1,773c-4.9,9.2-9.5,18.6-13.7,28.1l201.8-203.7
		C791.9,598.4,789.7,599.5,787.5,600.5z M882.4,569.5L828.8,623h-1.8l-69.1,69.1H755l-60.5,61h-3.3L568.3,874.4
		c-1.5,6.7-2.8,13.6-4,20.4l323.3-326.4C885.9,568.8,884.1,569.1,882.4,569.5z M920.4,564l-82,82h-2l-65,64.6h-2.9l-65.2,65.2h-3.1
		L561.7,913c-0.8,6.3-1.4,12.7-1.9,19.1l365-368.4C923.3,563.8,921.9,563.9,920.4,564z M1002.9,517.3l-4,0l-84,84.7h-2.9l-63.3,63.3
		h-4.1L559,947.7c-0.2,4.7-0.3,9.4-0.3,14.1c0,1.3,0,2.7,0,4L1002.9,517.3z M977.9,575.5l20-20.2l-4,0l-7.8,7.9
		c-1.8-0.1-3.7-0.2-5.5-0.3L799.9,741.5c10.9-7.8,22.4-14.9,34.4-21.1L977.9,575.5L977.9,575.5z M927,692.3l116.7-117.8l43.8-44
		l-4,0l-40.6,40.8c-1.7-0.4-3.3-0.7-5-1.1L912.4,694.4C917.2,693.5,922,692.9,927,692.3z M1064,576.4L948.5,690.7
		c3.3-0.1,6.5-0.2,9.8-0.2c0.9,0,1.9,0,2.8,0l110.8-111.9c0,0,0,0,0,0l81.2-82l-4,0l-48.4,48.8l-3.1,0l-31.3,31.6
		C1065.6,576.9,1064.8,576.6,1064,576.4z M1348.7,1047.3c1.4-6.4,2.6-12.8,3.7-19.3l-332.3,328.7c11-1.7,21.8-3.9,32.5-6.4
		l294.9-297.7l0,0l35-35.3l-4,0L1348.7,1047.3z M1403.1,959.7l-3.7,0l-43.7,44.1c0.2-1.5,0.3-3.1,0.4-4.6l-103.3,103.3h-4.7
		l-66.2,66.2h-4.2l-194.1,191.9c9.8-0.6,19.5-1.6,29.1-2.9l341.9-345.2v0l96-97l-4,0L1403.1,959.7z M1404.9,929.2l-4,0l-27.8,28.1
		l-3.6,0l-11.7,11.8c0-2.4,0.1-4.9,0.1-7.3c0-1.1,0-2.2,0-3.3l-407.3,402.8c2.6,0,5.1,0.1,7.7,0.1c6.3,0,12.6-0.2,18.9-0.4
		l339.4-342.7L1404.9,929.2z M968.3,715.9l128-129.2c-2.5-0.9-5.1-1.8-7.6-2.7L980.2,691.4c2.1,0.2,5.7,0.5,7.8,0.7l-23.7,23.8
		H968.3z M1043.7,738l28.9-29.2l89.7-90.6l0,0l22.3-22.6l-4,0l-20.9,21.1c-1.5-0.9-2.9-1.7-4.4-2.5l-96.6,95.5
		c2.1,0.8,4.2,1.7,6.3,2.6l-25.4,25.7H1043.7z M1112.1,592.9l-103.4,102.2c1.4,0.3,2.8,0.5,4.1,0.8l-45.2,45.6h3.7l-44.6,45h4
		l88.4-89.2c0,0,0,0,0,0l100.3-101.2c0,0,0,0,0,0l38.8-39.2l-4,0l-37.6,38C1115.1,594.2,1113.6,593.6,1112.1,592.9z M1027.8,786.7
		l61.8-62.4l0,0l92.6-93.5c-2.2-1.5-4.5-3-6.7-4.5l-94.4,93.4c1.2,0.6,2.4,1.2,3.6,1.9l-32.9,33.2h3.7l-31.6,31.9H1027.8z
		 M1164.4,975.8l61.1-61.7l0,0l99.7-100.7l23-23.2h-3.9l-17.3,17.4c-1.1-2.5-2.1-5.1-3.2-7.6l-101.2,100c0.6,2.5,1.1,5.1,1.7,7.6
		l-30.9,31.2h3.6l-36.6,36.9H1164.4z M1229.4,975.6C1229.4,975.6,1229.4,975.6,1229.4,975.6l7.6-7.7l0.1-0.1h0l107.5-108.6l0,0
		l20.2-20.4l-4,0l-17.1,17.2c-0.8-3.1-1.7-6.1-2.6-9.2l-111.5,110.3c0,1.5,0.1,3.1,0.1,4.6c0,3.2-0.1,6.4-0.2,9.6l-30.9,31.1h4
		L1229.4,975.6z M1104.3,1069.2l124.8-125.9l0,0l89-89.9l46.2-46.6h-3.9l-24.3,24.5c-1-2.8-2-5.6-3-8.3l-105.6,104.4
		c0.2,1.6,0.4,3.3,0.6,4.9l-37.2,37.6h3.9l-52.2,52.7h3.9l-46.2,46.6H1104.3z M1166.2,810.5l16.7-16.9l0,0l84.4-85.2l0,0l98.4-99.3
		l-4,0l-53,53.5l-3.7,0l-41.1,41.7c-0.8-0.9-1.6-1.9-2.4-2.8L1170,792c1.6,2,3.1,4,4.7,6l-12.5,12.5H1166.2z M1205.8,901.3
		l13.6-13.8c0,0,0,0,0,0l74.3-75h0l11.6-11.7l12.9-13l0,0l79.5-80.2l-4,0l-53,53.5l-3.7,0l-21.3,21.6c-0.8-1.5-1.5-3-2.3-4.5
		l-97.8,96.8c1,3.1,2,6.2,3,9.4l-16.7,16.8H1205.8z M1194.6,639.5l-92.9,91.9c1.9,1.2,3.8,2.4,5.7,3.7l-34.6,34.9h4l48.7-49.2
		l75.7-76.4l0,0l41-41.4l-4,0l-39.4,39.7C1197.4,641.7,1196,640.6,1194.6,639.5z M1318.3,584l-41.4,42.1l-3.4,0l-42.7,43.5
		c-0.3-0.3-0.6-0.6-1-0.9l-91.3,90.3c2.5,2.2,4.9,4.4,7.3,6.7l74.9-75.6l174.4-176.1l-4,0l-69.3,70L1318.3,584z M1374.9,690.3
		l-41.4,42.1l-3.4,0l-26.9,27.4c-0.4-0.7-0.9-1.5-1.3-2.2l-95.4,94.3c1.6,3.7,3.2,7.4,4.7,11.2l65.9-66.5h0l174.7-176.3l-4,0
		l-69.3,70L1374.9,690.3z M1416.7,815.2l-4,0l-31.9,32.4l-3.9,0l-28.2,28.7c-0.3-1.4-0.6-2.7-0.9-4.1l-119.7,118.4
		c-0.8,7.5-1.9,14.8-3.3,22.1l111.6-112.7h0l128.4-129.6l-4,0l-46.2,46.6L1416.7,815.2z M1361.4,573.1L1307,628l-2.8,0l-57.1,57.6
		c-0.3-0.3-0.6-0.7-0.9-1l-91.2,90.2c1.7,1.8,3.3,3.6,4.9,5.4l-31.5,31.7h4l29.4-29.7l0,0l90.4-91.2c0,0,0,0,0,0l188.1-189.8l-4,0
		l-71.3,71.9L1361.4,573.1z M1391.4,644.5l-53,53.5l-3.7,0l-42.9,43.5c-0.8-1.2-1.6-2.4-2.4-3.6l-93.5,92.5
		c1.8,3.3,3.6,6.7,5.3,10.1l93.6-94.5c0,0,0,0,0,0l100.7-101.6L1391.4,644.5z M1109.3,627.7l-74.5,73.7c3.3,1,6.5,2,9.7,3l69.5-70.2
		h0l0.2-0.2l27.2-27.5c0,0,0,0,0,0l88.6-89.3l-4,0l-59.7,60.1l-2.9,0l-50.3,50.3H1109.3z M1308.6,695.5l-28.8,29
		c-0.6-0.8-1.1-1.5-1.7-2.3l-34.5,34.5h-5.6l-54.4,53.8c2,3,4,6,5.9,9.1l81.3-82h0l6.8-6.8l4-4l0,0l31.1-31.3L1308.6,695.5z
		 M1215,655.6l-20.3,20.5c0,0-2.5,0-4.8,0l-69.1,68.4c1.8,1.4,3.6,2.8,5.4,4.2l-13,13.1h4l11.3-11.4l0,0L1219,659c0,0,0,0,0,0
		l120.4-121.6l-4,0l-74.9,75.6l-3.3,0L1215,655.6C1215.1,655.7,1215.1,655.7,1215,655.6z"></path>
</g>
<g id="punchedcircle-mobile" class="st1">
	<g class="st2">
		<defs>
			<path id="accoladesvg-SVGID_2_" d="M1499,1517.7l23.6-23.8C1514.9,1502.1,1507,1510,1499,1517.7z M53.1,274.6L264.9,60.8
				C185.3,122.4,114,194.3,53.1,274.6z M611.9-122.1L438,51.8h-12.2l-539.9,534c-7.5,21.3-14.3,42.9-20.5,64.8l773.7-781.1
				C630-127.9,620.9-125,611.9-122.1z M757.6,215.8l376-379.5c-8.2-1.2-16.5-2.4-24.7-3.5L705,232.2
				C722.3,226.1,739.8,220.6,757.6,215.8z M-1.9,1570.4c8.3,13.1,16.8,26,25.6,38.6l263.9-266.4c-7.1-12.6-13.9-25.4-20.3-38.4
				L-1.9,1570.4z M854.2,1728.1l-300.9,297.6c17.8,6.8,35.9,13.3,54.2,19.2l307.9-310.8C894.7,1732.9,874.3,1730.9,854.2,1728.1z
				 M2086,783.8l-375.9,371.8c-7.2,28.1-16.1,55.6-26.3,82.4l408.1-412C2090.1,811.9,2088.2,797.8,2086,783.8z M2095.8,865.4
				l-438.4,433.6c-34.9,71.9-80.5,137.6-134.9,195l576.2-581.7C2098.1,896.5,2097.1,880.9,2095.8,865.4z M1362.7,2028.1l668-674.4
				c10.3-28.2,19.5-56.9,27.6-86.1l-804,795.2C1291.3,2053,1327.4,2041.4,1362.7,2028.1z M1538.4,1944l410-413.8
				c22.8-39.5,43.3-80.6,61.3-122.9l-615.1,608.4C1444.3,1995,1492.4,1971.1,1538.4,1944z M1899.6,1607.3l-303.9,300.6
				C1714.9,1827.7,1818.2,1725.5,1899.6,1607.3z M-57.2,1970.3l239.9-242.2l0,0l878.6-886.9h-14.5l-341,341h-9.6l-241.6,241.6h-17.3
				l-129,129H293l-2.7,2.7l-173.2,171.3c6.6,7.3,13.3,14.5,20.1,21.6l-69,68.9h14l-153.1,153.1H-57.2z M1278.7,703.7l-220.2,220.2
				h-8.9l-174.4,174.4h-7.2l-267.4,267.4h-9l-161.1,159c0,0-5.7-5.5-8.6-8.2l-259.9,257c3.6,3.5,10.9,10.6,10.9,10.6L69.8,1887.2
				h15.1l-133.4,133.4h13.1l-100.7,100.7h9.7l-113.9,113.9h12.6L1289.8,703.7H1278.7z M1112,963.4L845.4,1230h-10.9l-190.6,190.6
				h-16.7L480,1567.7c0,0-6.4-5.2-9.6-7.8l-260.8,257.9c8.7,7.6,29.6,25.4,29.6,25.4l-74.4,74.4H179l945.9-954.2H1112z
				 M643.1,1529.6l-89.8,89.9c0,0-21.8-14.1-30.5-20.1l-263,260.1c13.1,10.3,26.5,20.3,40.1,30l356.5-359.9H643.1z M967.1,1295.2
				l-189.3,189.3h-13.8l-162.6,162.5c0,0-14.8-7.9-22.1-12.1l-266.6,263.6c14,9.7,28.2,19.1,42.7,28.2l625.6-631.5H967.1z
				 M1244.7,1109.1l-249.3,249.3h-13.6l-162.6,162.6h-12.9l-151.5,151.5c0,0-9.8-4.3-14.7-6.5l-271.8,268.8
				c14.9,9.1,30,17.8,45.3,26.3l843-851.9H1244.7z M1038,1410.7L864,1584.6h-11.4L735.2,1702c0,0-19.7-6.2-29.4-9.6l-278.9,275.8
				c15.8,8.4,31.9,16.5,48.1,24.1l574.8-581C1043.9,1411.1,1038,1410.7,1038,1410.7z M903,1639.9l-82.7,82.8c0,0-29.1-5.8-43.5-9.3
				l-288.3,285.2c16.8,7.7,33.8,14.9,51,21.8l377.1-380.4H903z M1549.8,1363.4l-198.4,198.4h-17.6L1196.6,1699
				c0,0-33.3,10-50.3,14.2l-376,371.9c21.6,3.6,43.4,6.7,65.4,9.1l726.9-730.7H1549.8z M569.8,2175l679.4-684.7h-13.2l-148.2,148.2
				h-15.6l-96.9,96.9c0,0-9.4,0.1-14.1,0.1c-7.3,0-14.5-0.1-21.7-0.3l-317.8,314.3c13.7,4.3,43.4,12.6,43.4,12.6L552.1,2175H569.8z
				 M1563.9,1252.1c-0.8,0.8-181.6,181.6-181.6,181.6h-14.5l-160.5,160.5h-17.7L1053.7,1730c0,0-12.5,1.4-18.8,2l-341.1,337.4
				c11.8,2.8,35.7,8,35.7,8l-73,73.2h13.8L549,2271.8h18.2l1009.9-1020C1569.1,1251.7,1564.2,1251.8,1563.9,1252.1z M1499,1517.7
				c-60.8,58.9-131.3,107.9-208.8,144.4l-438.4,433.6c17.8,1.7,35.6,3,53.6,3.8l-64.2,64.2h17.7l63-63.5c0,0,46.8-47.2,46.8-47.2
				L1499,1517.7z M745.4,1066.8h-14.9l-204.1,204.1h-14.9L348.2,1434c0,0-7.9-10.4-11.7-15.6L74.7,1677.3c9.9,12.2,20,24.2,30.4,36
				L745.4,1066.8z M417.6,1303.7h-14.6l-86.4,86.3c0,0-11.7-17.9-16.9-26.6L35.1,1625.2c9.1,12.6,18.4,25.1,28,37.4L417.6,1303.7z
				 M293.2,1216.2h-11.6l-37.7,37.7c0,0-3.7-9.3-5.5-13.9l-275.3,272.3c7.5,13.5,15.2,26.8,23.1,39.9l619.2-625.3h-11.2
				l-163.7,163.7h-11.7L293.2,1216.2z M420.8,1021.4h-11.2l-131.9,131.9H266l-42.4,42.4c-2.5-7.9-4.9-15.8-7.1-23.8l-283.6,280.5
				c3.9,8.1,7.9,16.2,11.9,24.2l-65.7,65.7h14l-153.1,153.1h13.6l476.2-480.7L420.8,1021.4z M-77,1431.1l12.8-12.9l9.8-9.9h0
				l234-236.2h0.1l28.8-29.1l0.4-0.4l0,0l54.7-55.3h-11.2l-45.7,45.7c-2.7-11.8-5.1-23.6-7.2-35.5l-294.6,291.4
				c2.7,6.6,5.4,13.3,8.3,19.8l-165,165h13.1l-100.7,100.7h9.7l-113.9,113.9h12.6L-77,1431.1L-77,1431.1z M-163.1,1145.2
				C-163.1,1145.2-163.1,1145.3-163.1,1145.2l375.9-379.5c6-23,13.1-45.6,21.1-67.7l-403.7,399.3c1.5,12.4,3.2,24.7,5.1,37
				l-119.6,119.6h13.6L-163.1,1145.2z M-64.3,952.3L-64.3,952.3l334-337.2c19.7-39.2,42.6-76.4,68.4-111.4l-514.8,509.1
				c0.5,12.5,1.4,25,2.3,37.4l-50.7,50.7h13.6L-64.3,952.3z M-177.6,1439.5l73.3-74c0,0,0,0,0,0l287.2-289.9h0l223.2-225.1h-11.2
				L263,982.4h-11.7l-59.5,59.5c-0.9-8.6-1.6-17.3-2.2-26.1l-309.3,305.9c3.8,11.5,7.9,22.9,12,34.2l-83.5,83.5H-177.6z M623.4,527
				L459.8,690.7h-11.7L322.3,816.4h-11.6L188,939.2c0.1-4.5,0.3-9.1,0.5-13.6l-329.3,325.6c4,15.1,8.2,30.1,12.8,45L634,527H623.4z
				 M-157.6,1176.6c3,15.6,6.3,31,9.9,46.4l333.7-336.8h0l280.6-283.3H456L292.4,766.5h-11.7l-85.2,85.2c1.4-9.7,3-19.4,4.7-29
				L-157.6,1176.6z M474.2-67.7l-169,169h-10.3L123.8,272.5h-13.5L-42.8,423.9c-14,26.1-27.1,52.9-39.1,80.2L493.2-76.5
				C486.8-73.6,480.5-70.7,474.2-67.7z M744.6-156.1L592-3.5h-5l-197,197h-8.3L209.2,367.2h-9.4L-150.4,713
				c-4.3,19.2-8.1,38.6-11.4,58.2l921.4-930.1C754.5-158,749.6-157.1,744.6-156.1z M853-171.6L619.4,62.2h-5.8L428.2,246.3h-8.3
				L234.1,432.1h-8.7L-169.3,823c-2.2,18-4,36.1-5.3,54.3L865.5-172.7C861.3-172.4,857.2-172,853-171.6z M1088-304.8l-11.3,0.1
				L837.2-63.4h-8.3L648.5,117h-11.7l-813.8,804.9c-0.5,13.3-0.7,26.7-0.7,40.2c0,3.8,0,7.7,0.1,11.5L1088-304.8z M1016.7-138.9
				l57.1-57.7l-11.3,0.1l-22.4,22.5c-5.3-0.4-10.5-0.7-15.8-1L509.6,334.1c31-22.3,63.8-42.5,98-60.1L1016.7-138.9L1016.7-138.9z
				 M871.6,193.9l332.5-335.7l124.9-125.5l-11.3,0.1L1202-151.1c-4.7-1-9.4-2.1-14.2-3L830,199.8
				C843.8,197.5,857.7,195.5,871.6,193.9z M1262.3-136.4L933,189.3c9.3-0.3,18.6-0.6,28-0.6c2.7,0,5.3,0.1,7.9,0.1L1284.8-130
				c0,0,0,0,0,0l231.5-233.8l-11.3,0.1l-137.9,139.2l-8.8,0l-89.1,90C1266.8-135.1,1264.6-135.8,1262.3-136.4z M2073.7,1205.6
				c4-18.2,7.5-36.5,10.6-55l-947.1,936.7c31.3-4.9,62.2-11,92.7-18.4l840.6-848.6l0,0l99.7-100.6l-11.3,0.1L2073.7,1205.6z
				 M2228.8,956l-10.5,0.1l-124.6,125.7c0.5-4.4,0.9-8.8,1.3-13.1l-294.3,294.3h-13.3l-188.7,188.7h-12l-553.1,547
				c27.9-1.8,55.5-4.5,82.9-8.2l974.5-983.7v0l273.7-276.3l-11.3,0.1L2228.8,956z M2233.9,869.1l-11.3,0.1l-79.3,80l-10.2,0.1
				l-33.4,33.7c0.1-6.9,0.2-13.9,0.2-20.8c0-3.1,0-6.3-0.1-9.4l-1160.7,1148c7.3,0.1,14.6,0.2,22,0.2c18,0,36-0.4,53.8-1.3
				l967.4-976.6L2233.9,869.1z M989.5,261.3L1354.3-107c-7.2-2.6-14.4-5.2-21.6-7.7l-309.3,305.9c6.1,0.5,16.2,1.5,22.2,2.1
				l-67.4,67.9H989.5z M1204.3,324.1l82.4-83.3l255.7-258.2l0,0l63.7-64.3l-11.3,0.1l-59.6,60c-4.2-2.4-8.3-4.9-12.5-7.3
				l-275.3,272.3c6,2.4,12,4.9,18,7.5l-72.5,73.1H1204.3z M1399.3-89.3l-294.6,291.4c3.9,0.7,7.9,1.5,11.8,2.3l-128.9,130H998
				L871,462.5h11.4l252-254.3c0,0,0,0,0,0l285.8-288.6c0,0,0,0-0.1,0l110.6-111.7l-11.3,0.1L1412.2-83.8
				C1407.9-85.6,1403.7-87.5,1399.3-89.3z M1159.2,463.1l176-177.9l0,0l263.9-266.4c-6.3-4.3-12.7-8.5-19.2-12.7l-269.1,266.2
				c3.4,1.7,6.8,3.5,10.2,5.3l-93.9,94.7h10.6l-89.9,90.9H1159.2z M1548.4,1001.9l174.2-175.8l0,0l284.3-287l65.6-66.2h-11.2
				l-49.2,49.6c-3-7.2-6.1-14.4-9.3-21.5l-288.3,285.1c1.7,7.2,3.2,14.4,4.7,21.7l-88.1,88.9h10.3L1537,1001.9H1548.4z
				 M1733.5,1001.4C1733.5,1001.4,1733.5,1001.4,1733.5,1001.4l21.7-21.8l0.4-0.4h0L2062,669.8l0,0l57.5-58.1l-11.3,0.1l-48.7,49.1
				c-2.4-8.7-4.8-17.5-7.4-26.1L1734.3,949c0.1,4.4,0.2,8.7,0.2,13.1c0,9.2-0.2,18.4-0.5,27.5l-88,88.5h11.4L1733.5,1001.4z
				 M1377,1268l355.6-358.9l0,0L1986.3,653l131.8-132.9h-11.2l-69.2,69.7c-2.8-7.9-5.6-15.9-8.5-23.7l-300.9,297.6
				c0.6,4.7,1.1,9.4,1.6,14.1l-106.1,107.1h11.2l-148.8,150.2h11.2L1365.7,1268H1377z M1553.4,530.9l47.6-48l0,0l240.6-242.9
				c0,0,0,0,0,0L2122-43.2l-11.3,0.1l-151.2,152.6l-10.5,0.1l-117.1,118.8c-2.3-2.7-4.5-5.4-6.8-8.1l-260.8,257.9
				c4.5,5.6,8.9,11.3,13.3,17l-35.5,35.8H1553.4z M1666.2,789.6l38.9-39.3c0,0,0,0.1,0,0.1l211.6-213.6h0l33-33.3l36.8-37.2
				c0,0,0,0,0,0L2213,237.7l-11.3,0.1l-151.2,152.6l-10.5,0.1l-60.6,61.4c-2.1-4.3-4.3-8.5-6.5-12.7l-278.8,275.8
				c3,8.8,5.8,17.8,8.4,26.8l-47.7,48H1666.2z M1634.3,43.5l-264.7,261.8c5.5,3.4,10.9,6.9,16.3,10.4l-98.7,99.6h11.4l138.7-140.1
				L1653,57.5l0,0l117-118.1l-11.3,0.1L1646.4,52.6C1642.4,49.6,1638.4,46.5,1634.3,43.5z M1987-114.9l-118,120.1l-9.6,0.1
				l-121.8,124c-0.9-0.8-1.8-1.7-2.7-2.6L1474.7,384c7,6.2,13.9,12.5,20.7,19L1709,187.4l497.2-501.8l-11.3,0.1l-197.6,199.4
				L1987-114.9z M2148.3,188.3l-118,120.1l-9.6,0.1l-76.8,78.1c-1.3-2.1-2.5-4.3-3.8-6.4L1668.4,649c4.7,10.5,9.1,21.2,13.3,31.9
				l187.8-189.5h0l497.9-502.6l-11.3,0.1l-197.6,199.4L2148.3,188.3z M2267.4,544.2l-11.3,0.1l-90.8,92.5l-11,0.1l-80.5,81.9
				c-0.8-3.9-1.7-7.7-2.5-11.6l-341.1,337.4c-2.3,21.3-5.4,42.3-9.3,63l318.1-321.2h0L2404.8,417l-11.3,0.1l-131.6,132.8
				L2267.4,544.2z M2109.9-145.7L1954.8,10.7l-8.1,0l-162.7,164.2c-0.9-0.9-1.8-1.9-2.7-2.8l-259.8,257c4.8,5,9.4,10.1,14.1,15.3
				l-89.7,90.5h11.4l83.7-84.5l0,0l257.6-260c0,0,0,0,0,0l536-541.1l-11.3,0.1L2120-145.8L2109.9-145.7z M2195.4,57.7l-151.2,152.6
				l-10.5,0.1l-122.3,124c-2.3-3.4-4.5-6.9-6.8-10.3l-266.6,263.7c5.3,9.5,10.3,19.1,15.2,28.8l266.7-269.3c0,0,0,0,0,0l286.9-289.6
				L2195.4,57.7z M1391.4,9.8L1179,219.9c9.3,2.7,18.5,5.6,27.6,8.6l198.2-200h0l0.6-0.6l77.5-78.3c0,0,0,0,0,0l252.5-254.5
				l-11.3,0.1l-170.2,171.3l-8.2,0L1402.4,9.8H1391.4z M1959.3,202.9l-82.1,82.8c-1.6-2.1-3.2-4.3-4.8-6.4l-98.4,98.4h-15.9
				l-154.9,153.2c5.8,8.6,11.3,17.2,16.7,26l231.6-233.8h0l19.3-19.5l11.3-11.4l0,0l88.5-89.3L1959.3,202.9z M1692.7,89.4
				l-57.9,58.3c0,0-7.1,0-13.6,0l-197,194.9c5.2,3.9,10.4,7.9,15.5,12l-37.2,37.5h11.4l32.1-32.4l0,0l258.1-260.6c0,0,0,0,0,0
				l343.1-346.5l-11.3,0.1L1822.5-31.9l-9.5,0.1L1692.7,89.4C1692.7,89.5,1692.7,89.5,1692.7,89.4z"></path>
		</defs>
		<clipPath id="accoladesvg-SVGID_3_">
			<use xlink:href="#accoladesvg-SVGID_2_" style="overflow:visible;"></use>
		</clipPath>
		<linearGradient id="accoladesvg-SVGID_4_" gradientUnits="userSpaceOnUse" x1="1829.3566" y1="-76.0588" x2="90.6434" y2="1996.0588">
			<stop offset="0" style="stop-color:#CF226B"></stop>
			<stop offset="0.1305" style="stop-color:#D02A6A"></stop>
			<stop offset="0.2863" style="stop-color:#D43C68"></stop>
			<stop offset="0.4551" style="stop-color:#DA5263"></stop>
			<stop offset="0.6331" style="stop-color:#E36D5A"></stop>
			<stop offset="0.8165" style="stop-color:#F18A43"></stop>
			<stop offset="0.879" style="stop-color:#F79536"></stop>
			<stop offset="0.918" style="stop-color:#F89B35"></stop>
			<stop offset="0.9792" style="stop-color:#FBAB33"></stop>
			<stop offset="1" style="stop-color:#FCB132"></stop>
		</linearGradient>
		<rect class="st3" width="1920" height="1920"></rect>
	</g>
</g>
</svg>