<svg xmlns="http://www.w3.org/2000/svg" width="100" height="100" viewBox="0 0 100 100">
  <metadata><?xpacket begin="﻿" id="W5M0MpCehiHzreSzNTczkc9d"?>
<x:xmpmeta xmlns:x="adobe:ns:meta/" x:xmptk="Adobe XMP Core 5.6-c138 79.159824, 2016/09/14-01:09:01        ">
   <rdf:RDF xmlns:rdf="http://www.w3.org/1999/02/22-rdf-syntax-ns#">
      <rdf:Description rdf:about=""
            xmlns:xmp="http://ns.adobe.com/xap/1.0/">
         <xmp:CreatorTool>Adobe Photoshop CC 2017 (Windows)</xmp:CreatorTool>
      </rdf:Description>
   </rdf:RDF>
</x:xmpmeta>
                                                                                                    
                                                                                                    
                                                                                                    
                                                                                                    
                                                                                                    
                                                                                                    
                                                                                                    
                                                                                                    
                                                                                                    
                                                                                                    
                                                                                                    
                                                                                                    
                                                                                                    
                                                                                                    
                                                                                                    
                                                                                                    
                                                                                                    
                                                                                                    
                                                                                                    
                                                                                                    
                           
<?xpacket end="w"?></metadata>
<defs>
    <style>
      .cls-1 {
        fill: #4274ef;
        fill-rule: evenodd;
      }
    </style>
  </defs>
  <path id="gamepad_sony" data-name="gamepad sony" class="cls-1" d="M47,38h8a1,1,0,0,1,0,2H47A1,1,0,0,1,47,38Zm4-1a2,2,0,0,1,1.693.934H49.307A2,2,0,0,1,51,37Zm1.729,3.006a2,2,0,0,1-3.458,0h3.458ZM45,43a5,5,0,1,1-5,5A5,5,0,0,1,45,43ZM28.077,68.751a5.331,5.331,0,0,1-2.131-.445c-4.152-1.791-4.949-9.229-2.13-19.893C26.286,39.055,29.133,32.9,35.69,31.139a10.984,10.984,0,0,1,2.878-.4A14.048,14.048,0,0,1,43.657,31.9a17.476,17.476,0,0,0,13.65.009,14.143,14.143,0,0,1,5.121-1.166,10.961,10.961,0,0,1,2.874.4c6.55,1.763,9.4,7.916,11.875,17.274,2.814,10.665,2.016,18.1-2.134,19.894a5.328,5.328,0,0,1-2.13.443c-3.747,0-7.068-3.763-9.737-6.786l-0.7-.8C60.2,58.523,56.5,57.347,50.5,57.347c-5.523,0-9.891,1.39-11.983,3.813l-0.691.8C35.144,64.988,31.822,68.751,28.077,68.751ZM38.568,32.727a8.966,8.966,0,0,0-2.352.331c-5.623,1.512-8.17,7.19-10.459,15.858-2.432,9.2-2.035,16.264.991,17.568a3.276,3.276,0,0,0,1.329.278c2.834,0,5.951-3.529,8.226-6.106l0.687-.792C39.462,57,44.385,55.358,50.5,55.358c6.647,0,10.812,1.391,13.5,4.508l0.687,0.792c2.274,2.575,5.389,6.1,8.225,6.1a3.267,3.267,0,0,0,1.328-.278c3.024-1.306,3.423-8.366.995-17.568-2.293-8.669-4.842-14.346-10.459-15.858a9.032,9.032,0,0,0-2.348-.328,12.285,12.285,0,0,0-4.4,1.034,19.494,19.494,0,0,1-15.065,0A12.292,12.292,0,0,0,38.568,32.727Zm26.1,6.8a1.491,1.491,0,0,0,0-2.982,1.491,1.491,0,0,0,0,2.982h0Zm0,6.13a1.491,1.491,0,0,0,0-2.982,1.491,1.491,0,0,0,0,2.982h0Zm3.094-3.064a1.491,1.491,0,0,0,0-2.982,1.491,1.491,0,0,0,0,2.982h0Zm-6.188,0a1.491,1.491,0,0,0,0-2.982,1.491,1.491,0,0,0,0,2.982h0ZM35.946,45.163a4.184,4.184,0,1,1,4.222-4.185A4.207,4.207,0,0,1,35.946,45.163Zm0-6.379a2.2,2.2,0,1,0,2.216,2.194A2.208,2.208,0,0,0,35.946,38.784ZM58.019,54.11a4.184,4.184,0,1,1,4.223-4.184A4.208,4.208,0,0,1,58.019,54.11Zm0-6.38a2.2,2.2,0,1,0,2.216,2.2A2.208,2.208,0,0,0,58.019,47.73ZM42,47h2V45h2v2h2v2H46v2H44V49H42"/>
</svg>
